<svg xmlns="http://www.w3.org/2000/svg" viewBox="0 0 24 44">
  <path fill="#fff" fill-rule="evenodd" d="M13.625 12.478a3.002 3.002 0 00-3.25 0L.422 18.882a.503.503 0 00.544.845l2.534-1.63V29.5A2.5 2.5 0 006 32h12a2.5 2.5 0 002.5-2.5V18.097l2.534 1.63a.503.503 0 00.544-.845l-3.078-1.98V13.5a.5.5 0 00-1 0v2.758l-5.875-3.78zm5.875 4.975l-6.417-4.128a2.001 2.001 0 00-2.166 0L4.5 17.453V29.5A1.5 1.5 0 006 31h2.5v-7.015a2 2 0 012-2h3a2 2 0 012 2V31H18a1.5 1.5 0 001.5-1.5V17.453zm-9 5.532a1 1 0 00-1 1v7h5v-7a1 1 0 00-1-1h-3z" clip-rule="evenodd"/>
</svg>
