<?xml version="1.0" encoding="utf-8"?>
<svg xmlns="http://www.w3.org/2000/svg">
<symbol id="homepage" viewBox="0 0 24 44">
  <path fill="#fff" fill-rule="evenodd" d="M13.625 12.478a3.002 3.002 0 00-3.25 0L.422 18.882a.503.503 0 00.544.845l2.534-1.63V29.5A2.5 2.5 0 006 32h12a2.5 2.5 0 002.5-2.5V18.097l2.534 1.63a.503.503 0 00.544-.845l-3.078-1.98V13.5a.5.5 0 00-1 0v2.758l-5.875-3.78zm5.875 4.975l-6.417-4.128a2.001 2.001 0 00-2.166 0L4.5 17.453V29.5A1.5 1.5 0 006 31h2.5v-7.015a2 2 0 012-2h3a2 2 0 012 2V31H18a1.5 1.5 0 001.5-1.5V17.453zm-9 5.532a1 1 0 00-1 1v7h5v-7a1 1 0 00-1-1h-3z" clip-rule="evenodd"/>
</symbol>

<symbol id="darkmode" viewBox="0 0 24 44">
  <path fill="#fff" d="M15 17.5a.5.5 0 011 0v8a.5.5 0 01-1 0v-8zm4 1.5a.5.5 0 00-.5.5v4a.5.5 0 001 0v-4a.5.5 0 00-.5-.5z"/>
  <path fill="#fff" fill-rule="evenodd" d="M22.5 21.5C22.5 27.299 17.799 32 12 32S1.5 27.299 1.5 21.5 6.201 11 12 11s10.5 4.701 10.5 10.5zm-11-9.487c-5.014.26-9 4.408-9 9.487s3.986 9.227 9 9.487V12.013zm10 9.487c0 5.079-3.986 9.227-9 9.487V12.013c5.014.26 9 4.408 9 9.487z" clip-rule="evenodd"/>
</symbol>

<symbol id="jfz" viewBox="0 0 24 24">
  <path fill="url(#icon__paint0_linear)" d="M1.327 7H10L2.552 24H0L6.428 9.471H1.327V7z"/>
  <path fill="#fff" d="M13.143 7H16l-5.142 10H8l5.143-10z"/>
  <path fill="url(#icon__paint1_linear)" d="M21.45 0H24l-6.428 14.544h5.101V17H14l7.448-17h.002z"/>
  <defs>
    <linearGradient id="icon__paint0_linear" x1="12.143" x2="12.143" y1="14.116" y2="24" gradientUnits="userSpaceOnUse">
      <stop stop-color="#fff"/>
      <stop offset=".5" stop-color="#fff"/>
      <stop offset=".55" stop-color="#fff" stop-opacity=".9"/>
      <stop offset=".6" stop-color="#fff" stop-opacity=".8"/>
      <stop offset=".65" stop-color="#fff" stop-opacity=".7"/>
      <stop offset=".7" stop-color="#fff" stop-opacity=".6"/>
      <stop offset=".75" stop-color="#fff" stop-opacity=".5"/>
      <stop offset=".8" stop-color="#fff" stop-opacity=".4"/>
      <stop offset=".85" stop-color="#fff" stop-opacity=".3"/>
      <stop offset=".9" stop-color="#fff" stop-opacity=".2"/>
      <stop offset=".95" stop-color="#fff" stop-opacity=".1"/>
      <stop offset="1" stop-color="#fff" stop-opacity="0"/>
    </linearGradient>
    <linearGradient id="icon__paint1_linear" x1="11.857" x2="11.857" y1="9.827" y2="0" gradientUnits="userSpaceOnUse">
      <stop stop-color="#fff"/>
      <stop offset=".5" stop-color="#fff"/>
      <stop offset=".55" stop-color="#fff" stop-opacity=".9"/>
      <stop offset=".6" stop-color="#fff" stop-opacity=".8"/>
      <stop offset=".65" stop-color="#fff" stop-opacity=".7"/>
      <stop offset=".7" stop-color="#fff" stop-opacity=".6"/>
      <stop offset=".75" stop-color="#fff" stop-opacity=".5"/>
      <stop offset=".8" stop-color="#fff" stop-opacity=".4"/>
      <stop offset=".85" stop-color="#fff" stop-opacity=".3"/>
      <stop offset=".9" stop-color="#fff" stop-opacity=".2"/>
      <stop offset=".95" stop-color="#fff" stop-opacity=".1"/>
      <stop offset="1" stop-color="#fff" stop-opacity="0"/>
    </linearGradient>
  </defs>
</symbol>
</svg>