<svg xmlns="http://www.w3.org/2000/svg" viewBox="0 0 15 15">
  <path d="M7.946 14.412c3.815 0 6.973-3.165 6.973-6.973 0-3.814-3.165-6.972-6.98-6.972C4.132.467.974 3.625.974 7.439c0 3.808 3.165 6.973 6.972 6.973zm0-1.162a5.783 5.783 0 01-5.803-5.81 5.776 5.776 0 015.796-5.811 5.798 5.798 0 015.818 5.81 5.784 5.784 0 01-5.81 5.811zm-.061-8.244a.883.883 0 00.888-.889.888.888 0 10-1.777 0c0 .492.397.889.889.889zM6.75 11.199h2.782c.28 0 .5-.198.5-.478a.485.485 0 00-.5-.479h-.847v-3.48c0-.368-.185-.615-.534-.615H6.866a.485.485 0 00-.499.479c0 .28.219.478.5.478h.73v3.138H6.75a.485.485 0 00-.499.479c0 .28.219.478.499.478z"/>
</svg>
