<svg xmlns="http://www.w3.org/2000/svg" viewBox="0 0 15 15">
  <path d="M7.946 14.287c3.815 0 6.973-3.165 6.973-6.973 0-3.814-3.165-6.972-6.98-6.972C4.132.342.974 3.5.974 7.314c0 3.808 3.165 6.973 6.972 6.973zm0-1.162a5.783 5.783 0 01-5.803-5.81 5.776 5.776 0 015.796-5.811 5.798 5.798 0 015.818 5.81 5.784 5.784 0 01-5.81 5.811zM7.94 8.552c.322 0 .513-.185.52-.54l.103-3.61c.006-.348-.267-.608-.63-.608-.369 0-.628.253-.621.602L7.4 8.012c.007.348.199.54.54.54zm0 2.221c.39 0 .732-.314.732-.71a.72.72 0 00-.732-.711c-.403 0-.738.314-.738.71 0 .39.342.711.738.711z"/>
</svg>
