<svg xmlns="http://www.w3.org/2000/svg" viewBox="0 0 15 15">
  <path d="M7.696 14.537c3.815 0 6.973-3.165 6.973-6.973 0-3.814-3.165-6.972-6.98-6.972C3.882.592.724 3.75.724 7.564c0 3.808 3.165 6.973 6.972 6.973zm0-1.162a5.783 5.783 0 01-5.803-5.81 5.776 5.776 0 015.796-5.811 5.798 5.798 0 015.818 5.81 5.784 5.784 0 01-5.81 5.811zm-.752-2.563c.226 0 .417-.11.554-.322l3.124-4.915c.075-.13.164-.287.164-.437 0-.301-.273-.5-.56-.5-.171 0-.342.103-.472.308L6.917 9.492 5.57 7.756c-.164-.219-.314-.28-.506-.28a.531.531 0 00-.526.546c0 .144.062.294.157.424l1.668 2.044c.171.226.356.322.581.322z"/>
</svg>
