<svg xmlns="http://www.w3.org/2000/svg" viewBox="0 0 15 15">
  <path d="M7.696 14.537c3.815 0 6.973-3.165 6.973-6.973 0-3.814-3.165-6.972-6.98-6.972C3.882.592.724 3.75.724 7.564c0 3.808 3.165 6.973 6.972 6.973zm0-1.162a5.783 5.783 0 01-5.803-5.81 5.776 5.776 0 015.796-5.811 5.798 5.798 0 015.818 5.81 5.784 5.784 0 01-5.81 5.811zm-2.338-2.912a.532.532 0 00.397-.171l1.934-1.948 1.949 1.948c.102.103.232.17.39.17.3 0 .546-.252.546-.553a.511.511 0 00-.164-.39L8.47 7.58l1.948-1.956a.503.503 0 00.164-.383.544.544 0 00-.547-.547.499.499 0 00-.376.164L7.69 6.812 5.741 4.864a.49.49 0 00-.383-.157.538.538 0 00-.382.923l1.941 1.948-1.941 1.948a.52.52 0 00-.164.383c0 .301.246.554.546.554z"/>
</svg>
