<svg xmlns="http://www.w3.org/2000/svg" viewBox="0 0 15 15">
  <path d="M7.946 14.787c3.815 0 6.973-3.165 6.973-6.973C14.919 4 11.754.842 7.939.842 4.132.842.974 4 .974 7.814c0 3.808 3.165 6.973 6.972 6.973zm0-1.162a5.783 5.783 0 01-5.803-5.81 5.776 5.776 0 015.796-5.811 5.798 5.798 0 015.818 5.81 5.784 5.784 0 01-5.81 5.811zm-.143-4.396c.342 0 .553-.211.553-.485v-.082c0-.383.22-.622.698-.936.663-.438 1.134-.841 1.134-1.655 0-1.141-1.011-1.75-2.173-1.75-1.176 0-1.949.554-2.133 1.183a1.201 1.201 0 00-.062.342c0 .3.246.471.472.471.39 0 .451-.212.67-.464.226-.376.554-.602 1.012-.602.622 0 1.025.349 1.025.875 0 .465-.287.69-.882 1.1-.492.342-.861.705-.861 1.375v.088c0 .363.198.54.547.54zm-.014 2.044c.397 0 .738-.314.738-.71 0-.404-.335-.711-.738-.711-.403 0-.738.314-.738.71 0 .39.342.711.738.711z"/>
</svg>
