<svg xmlns="http://www.w3.org/2000/svg" viewBox="0 0 16 13">
  <path d="M2.612 12.27h10.981c1.333 0 1.993-.66 1.993-1.968v-7.75c0-1.308-.66-1.969-1.993-1.969H2.612C1.285.583.619 1.237.619 2.551v7.75c0 1.315.666 1.969 1.993 1.969zm.013-1.022c-.635 0-.984-.337-.984-.997V2.602c0-.66.349-.997.984-.997H13.58c.628 0 .984.337.984.997v7.649c0 .66-.356.997-.984.997H2.625zm1.002-7.199a.59.59 0 00.59-.59c0-.33-.26-.59-.59-.59a.597.597 0 00-.59.59c0 .317.273.59.59.59zm1.917-.203h7.262c.229 0 .4-.171.4-.387 0-.222-.178-.4-.4-.4H5.544c-.222 0-.4.178-.4.4 0 .216.172.387.4.387zM3.627 5.992a.59.59 0 00.59-.59c0-.33-.26-.591-.59-.591a.597.597 0 00-.59.59c0 .318.273.59.59.59zm1.917-.197H9.57a.396.396 0 00.393-.394c0-.215-.177-.4-.393-.4H5.544c-.222 0-.4.185-.4.4 0 .216.178.394.4.394zM3.627 7.928c.33 0 .59-.26.59-.59a.584.584 0 00-.59-.585.592.592 0 00-.59.584c0 .33.267.59.59.59zm1.917-.19h7.262a.39.39 0 00.4-.4.388.388 0 00-.4-.388H5.544c-.228 0-.4.172-.4.387 0 .229.172.4.4.4zM3.627 9.964a.59.59 0 00.59-.59.59.59 0 00-.59-.597.603.603 0 00-.59.597c0 .317.273.59.59.59zm1.917-.196H9.57a.396.396 0 00.393-.394.388.388 0 00-.393-.394H5.544a.39.39 0 00-.4.394c0 .216.178.394.4.394z"/>
</svg>
