<svg xmlns="http://www.w3.org/2000/svg" viewBox="0 0 19 15">
  <path d="M7.542 14.382c.317.09.628-.088.73-.431L12.054.963c.095-.342-.057-.66-.375-.755-.317-.089-.628.089-.73.432L7.16 13.627c-.095.343.064.66.381.755zm6.31-2.304l4.773-4.31a.624.624 0 000-.946l-4.774-4.31c-.267-.247-.622-.241-.844.007-.222.247-.19.603.063.837l4.355 3.936-4.355 3.942c-.254.235-.285.59-.063.838.222.247.578.247.844.006zm-8.481.007c.26.24.622.234.844-.013.222-.248.184-.597-.07-.832L1.791 7.298l4.354-3.942c.254-.234.292-.584.07-.837-.222-.248-.584-.248-.844-.007L.59 6.822a.625.625 0 000 .946l4.78 4.317z"/>
</svg>
