<svg xmlns="http://www.w3.org/2000/svg" viewBox="0 0 30 30">
  <path fill="#86868B" fill-opacity=".92" d="M15 0C6.75 0 0 6.75 0 15s6.75 15 15 15 15-6.75 15-15S23.25 0 15 0zm8.25 16.35h-6.9v6.9c0 .675-.675 1.275-1.275 1.275-.675 0-1.275-.675-1.275-1.275v-6.9H6.9c-.675 0-1.275-.675-1.275-1.275 0-.675.675-1.275 1.275-1.275h6.75V6.9c0-.675.675-1.275 1.275-1.275.675 0 1.275.675 1.275 1.275v6.825h6.9c.675 0 1.275.675 1.425 1.35 0 .675-.675 1.275-1.275 1.275z"/>
  <path fill="#fff" d="M23.1 13.725h-6.9V6.9c0-.6-.6-1.275-1.275-1.275-.6 0-1.275.6-1.275 1.275v6.9H6.9c-.6 0-1.275.6-1.275 1.275 0 .6.6 1.275 1.275 1.275h6.9v6.9c0 .6.6 1.275 1.275 1.275.6 0 1.275-.6 1.275-1.275v-6.9h6.9c.6 0 1.275-.6 1.275-1.275-.15-.675-.75-1.35-1.425-1.35z"/>
</svg>
