<svg xmlns="http://www.w3.org/2000/svg" viewBox="0 0 17 14">
  <path d="M2.066 9.639c.205 1.19.914 1.681 2.127 1.465l.118-.018v.264c0 1.207.609 1.816 1.84 1.816h8.542c1.225 0 1.84-.61 1.84-1.816V5.42c0-1.207-.615-1.816-1.84-1.816h-1.271l-.346-1.928c-.21-1.184-.92-1.688-2.127-1.47L2.535 1.692c-1.213.211-1.7.909-1.494 2.104l1.025 5.842zm.92-.217L1.98 3.68c-.106-.592.158-.961.738-1.067l8.385-1.476c.568-.1.949.152 1.054.75l.305 1.717H6.15c-1.231 0-1.84.603-1.84 1.816v4.705l-.264.047c-.574.105-.95-.152-1.06-.75zm2.268-3.95c0-.609.322-.925.908-.925h8.52c.58 0 .908.316.908.926v4.658l-2.121-2.004a1.264 1.264 0 00-.867-.352c-.323 0-.604.112-.873.346L9.133 10.43 8.09 9.492c-.246-.217-.51-.334-.785-.334-.252 0-.498.112-.739.328l-1.312 1.137v-5.15zm2.93 2.801c.75 0 1.359-.615 1.359-1.37a1.37 1.37 0 00-1.36-1.366c-.75 0-1.365.621-1.365 1.365 0 .756.616 1.371 1.366 1.371z"/>
</svg>
