<svg xmlns="http://www.w3.org/2000/svg" viewBox="0 0 19 16">
  <path d="M2.89 12.07h1.305v1.046c0 1.408.711 2.12 2.147 2.12h9.973c1.422 0 2.14-.712 2.14-2.12V6.198c0-1.408-.718-2.119-2.14-2.119h-1.312V3.033c0-1.408-.718-2.119-2.14-2.119H2.89c-1.436 0-2.147.711-2.147 2.12V9.95c0 1.408.711 2.12 2.147 2.12zm.013-1.1c-.683 0-1.06-.37-1.06-1.08V3.095c0-.711.377-1.08 1.06-1.08h9.94c.677 0 1.06.369 1.06 1.08v.984H6.341c-1.436 0-2.147.704-2.147 2.12v4.77H2.903zm2.393-4.71c0-.711.376-1.08 1.06-1.08h9.939c.677 0 1.06.369 1.06 1.08v5.44L14.88 9.356a1.491 1.491 0 00-1.019-.41c-.369 0-.704.13-1.011.404l-3.036 2.693-1.216-1.094c-.28-.253-.588-.39-.91-.39-.3 0-.58.13-.868.383l-1.524 1.32V6.26zm3.418 3.267c.868 0 1.586-.717 1.586-1.6 0-.867-.718-1.592-1.586-1.592-.882 0-1.6.725-1.6 1.593 0 .882.718 1.6 1.6 1.6z"/>
</svg>
