<svg xmlns="http://www.w3.org/2000/svg" viewBox="0 0 48 48">
  <path fill="#E32529" d="M36.056 23.72c-.673-.203-1.14-.34-.784-1.23.766-1.926.847-3.59.015-4.776-1.56-2.229-5.822-2.107-10.71-.061 0-.001-1.532.672-1.14-.545.752-2.417.637-4.442-.532-5.61-2.651-2.653-9.702.1-15.748 6.144C2.63 22.172 0 26.972 0 31.12c0 7.939 10.18 12.763 20.138 12.763 13.054 0 21.738-7.583 21.738-13.605 0-3.638-3.065-5.704-5.82-6.557zM20.165 41.038c-7.946.784-14.806-2.807-15.323-8.024-.515-5.216 5.51-10.081 13.455-10.867 7.948-.786 14.806 2.805 15.323 8.02.513 5.22-5.509 10.085-13.455 10.87z"/>
  <path fill="#F29600" d="M44.727 9.194C41.574 5.7 36.924 4.366 32.632 5.28h-.002a1.837 1.837 0 00.768 3.594 9.037 9.037 0 0110.488 11.621v.001c-.313.967.216 2 1.183 2.313a1.837 1.837 0 002.314-1.179v-.009a12.695 12.695 0 00-2.656-12.426z"/>
  <path fill="#F29600" d="M39.184 20.637a1.584 1.584 0 001.992-1.02 6.186 6.186 0 00-7.182-7.958 1.579 1.579 0 00-1.215 1.878 1.578 1.578 0 001.874 1.215v.002a3.034 3.034 0 012.882.928c.751.832.953 1.967.63 2.962h.002a1.586 1.586 0 001.017 1.993z"/>
  <path d="M20.958 26.163c-3.78-.986-8.055.898-9.697 4.231-1.673 3.398-.055 7.17 3.765 8.405 3.957 1.275 8.621-.682 10.243-4.346 1.6-3.59-.398-7.28-4.311-8.29zm-2.886 8.677c-.77 1.225-2.415 1.762-3.654 1.196-1.223-.555-1.582-1.98-.815-3.176.759-1.19 2.35-1.721 3.581-1.205 1.245.532 1.642 1.946.888 3.185zm2.531-3.251c-.277.475-.892.703-1.373.507-.474-.196-.622-.727-.353-1.195.277-.464.867-.689 1.339-.503.48.177.652.712.387 1.19z"/>
</svg>
